Coordinates
version=1
nRows=17
nColumns=40
inDegrees=yes

Units are S.I. units (second, meters, Newtons, ...)
Angles are in degrees.

endheader
time	pelvis_tilt	pelvis_list	pelvis_rotation	pelvis_tx	pelvis_ty	pelvis_tz	hip_flexion_r	hip_adduction_r	hip_rotation_r	knee_angle_r	knee_angle_r_beta	ankle_angle_r	subtalar_angle_r	mtp_angle_r	hip_flexion_l	hip_adduction_l	hip_rotation_l	knee_angle_l	knee_angle_l_beta	ankle_angle_l	subtalar_angle_l	mtp_angle_l	lumbar_extension	lumbar_bending	lumbar_rotation	arm_flex_r	arm_add_r	arm_rot_r	elbow_flex_r	pro_sup_r	wrist_flex_r	wrist_dev_r	arm_flex_l	arm_add_l	arm_rot_l	elbow_flex_l	pro_sup_l	wrist_flex_l	wrist_dev_l
     37.21000000	     -2.91310887	     -4.97565798	     -0.23126315	      0.91246806	      0.92574582	      0.47021827	     19.51097848	      2.39189071	     -9.98020646	     18.25745042	     18.25745042	      3.92500400	     -2.50747743	     -5.89854325	      1.40734270	     -9.99310205	     -7.61352662	     33.40353032	     33.40353032	     14.33065927	     -8.46924829	    -11.31316588	     -7.78871417	      5.61253459	     -0.51212693	     -6.22558908	    -14.34692253	     -7.82234542	     36.90489789	     46.45886730	      0.00000000	      0.00000000	      8.24475288	    -12.57394601	     -8.01452077	     58.36524498	     46.81189283	      0.00000000	      0.00000000
     37.22314286	     -2.87376908	     -5.06748424	      0.01735782	      0.91305879	      0.92641191	      0.47272508	     18.87902429	      2.58761868	    -10.38141690	     18.13523576	     18.13523576	      4.33869561	     -2.15203498	     -6.34945784	      3.14737657	    -10.48579333	     -6.45891189	     37.01119505	     37.01119505	     11.31664512	    -11.22141347	    -14.08891627	     -7.80949516	      5.74081557	     -0.63390233	     -5.24954638	    -14.73359153	     -6.68120772	     39.68752469	     46.25982541	      0.00000000	      0.00000000	      7.63264429	    -12.53743175	     -8.06363470	     57.21768486	     46.80113276	      0.00000000	      0.00000000
     37.23628571	     -2.82254118	     -5.35099349	      0.26834010	      0.91345888	      0.92689680	      0.47536008	     18.14543046	      3.05276791	    -10.69879449	     17.79689447	     17.79689447	      4.69671381	     -1.96575953	     -6.44284529	      5.18819577	    -11.33732594	     -5.57086369	     41.17724695	     41.17724695	      9.29465621	    -12.42838543	    -14.42715973	     -7.86876944	      6.02555219	     -0.25340410	     -3.98353460	    -14.96181468	     -6.53079264	     40.63264918	     46.21865631	      0.00000000	      0.00000000	      7.13951676	    -12.26291787	     -7.95512367	     56.74434788	     46.78241441	      0.00000000	      0.00000000
     37.24942857	     -2.75697754	     -5.57402582	      0.53764446	      0.91361605	      0.92713515	      0.47778702	     17.54457941	      3.41550689	    -10.99539950	     17.70584653	     17.70584653	      5.09539855	     -1.85828419	     -6.59129548	      7.32056831	    -11.98878864	     -4.45553315	     45.31867683	     45.31867683	      7.09256243	    -13.79631908	    -14.36841197	     -7.97517027	      6.25985267	     -0.08080456	     -2.54246053	    -15.20641881	     -6.37498597	     41.90631993	     46.16659708	      0.00000000	      0.00000000	      6.60412454	    -12.13617882	     -7.88701728	     56.06187314	     46.76394256	      0.00000000	      0.00000000
     37.26257143	     -2.81882417	     -5.60830383	      0.81725791	      0.91344328	      0.92705253	      0.47990220	     17.24681411	      3.52138528	    -11.28430508	     17.89349510	     17.89349510	      5.56329419	     -1.80028785	     -6.77154883	      9.67723012	    -12.19138405	     -3.06390042	     49.35351818	     49.35351818	      4.95036753	    -15.39125350	    -13.34883053	     -7.94606267	      6.30403095	     -0.25064079	     -1.33292209	    -15.59302881	     -5.57261108	     44.56412770	     46.02112986	      0.00000000	      0.00000000	      6.02186911	    -12.10982553	     -8.01642063	     54.72288911	     46.75410239	      0.00000000	      0.00000000
     37.27571429	     -2.65655585	     -5.87761850	      1.10396530	      0.91315137	      0.92714271	      0.48209719	     16.65576368	      3.91760211	    -11.56753842	     17.93395953	     17.93395953	      5.92475827	     -1.78619436	     -6.85935860	     11.81528367	    -12.74408717	     -1.91877804	     53.19358533	     53.19358533	      3.03055991	    -16.08970344	    -12.60371216	     -8.21550697	      6.55610578	      0.19303494	      0.07868909	    -16.01648603	     -5.40316324	     45.68504635	     45.97700039	      0.00000000	      0.00000000	      5.63307099	    -11.83120996	     -7.95879972	     54.17396143	     46.73887447	      0.00000000	      0.00000000
     37.28885714	     -2.74233318	     -5.88653499	      1.42454988	      0.91247300	      0.92685733	      0.48377430	     16.49902281	      3.94908832	    -11.85873115	     18.28051393	     18.28051393	      6.57009283	     -1.73215013	     -6.56993052	     14.46417992	    -12.66671759	     -0.45133370	     57.24497282	     57.24497282	      3.56534538	    -15.65949759	     -5.86739085	     -8.22003741	      6.62560041	      0.41145973	      0.45153230	    -17.23526375	     -2.78622264	     50.07248058	     45.67514572	      0.00000000	      0.00000000	      5.61216373	    -11.43377659	     -8.47455484	     51.97097852	     46.75460076	      0.00000000	      0.00000000
     37.30200000	     -2.63872518	     -6.03696899	      1.74484895	      0.91175276	      0.92687537	      0.48552948	     16.04296594	      4.19645209	    -12.07617476	     18.39670914	     18.39670914	      6.94452920	     -1.85767635	     -6.64540218	     16.57678062	    -12.85395304	      0.66198769	     60.24562753	     60.24562753	      2.08015281	    -16.16789280	     -5.19814799	     -8.46793546	      6.76102587	      0.69429641	      2.21096590	    -17.56546138	     -2.89063166	     50.93243253	     45.65761801	      0.00000000	      0.00000000	      5.12950749	    -11.27616686	     -8.35864575	     51.44365639	     46.73296473	      0.00000000	      0.00000000
     37.31514286	     -2.70142180	     -6.07615322	      2.11787871	      0.91072810	      0.92675324	      0.48700917	     15.81374620	      4.29019899	    -12.28486166	     18.56795644	     18.56795644	      7.33166146	     -2.05148854	     -6.64272029	     18.86155050	    -12.75640650	      1.80260694	     62.84507836	     62.84507836	      1.19421429	    -16.60673050	     -3.83086926	     -8.52615391	      6.79255120	      0.60046032	      3.99089622	    -17.77619690	     -2.86192337	     52.15206854	     45.62059522	      0.00000000	      0.00000000	      4.48404081	    -11.23736212	     -8.29022464	     50.49986612	     46.70717248	      0.00000000	      0.00000000
     37.32828571	     -2.72318148	     -5.94471984	      2.46822726	      0.90956721	      0.92686158	      0.48817646	     15.59186572	      4.16032210	    -12.51015020	     18.87776327	     18.87776327	      8.00483631	     -2.01533329	     -5.96577632	     21.19676010	    -12.38858740	      2.75013451	     65.36079335	     65.36079335	      3.12294079	    -15.70642947	      3.45581299	     -8.64884065	      6.66012141	      0.61575046	      5.41525874	    -18.56703396	     -1.14773355	     54.50379886	     45.46582952	      0.00000000	      0.00000000	      4.47968201	    -10.92079148	     -8.91934093	     48.14501678	     46.72584627	      0.00000000	      0.00000000
     37.34142857	     -2.75506566	     -5.88026877	      2.83961135	      0.90829821	      0.92707713	      0.48929449	     15.24718991	      4.14932816	    -12.69946824	     18.87299024	     18.87299024	      8.32293526	     -2.15793947	     -5.92603458	     23.16568653	    -12.13871237	      3.45108274	     66.70574547	     66.70574547	      2.75856506	    -16.18710586	      4.01064478	     -8.79201332	      6.57639533	      0.59445309	      7.30126131	    -18.70337104	     -1.24457586	     55.58350930	     45.44147083	      0.00000000	      0.00000000	      3.88569818	    -10.84595721	     -8.89566192	     47.32656307	     46.70513669	      0.00000000	      0.00000000
     37.35457143	     -2.77331568	     -5.77074870	      3.20423995	      0.90694613	      0.92748885	      0.49023379	     14.86769177	      4.07948116	    -12.89671082	     18.84453054	     18.84453054	      8.74964117	     -2.13147156	     -5.57088392	     25.04919480	    -11.83741020	      3.95178870	     67.56069140	     67.56069140	      3.36563258	    -16.35125456	      6.16671967	     -8.96602473	      6.46086241	      0.74647123	      8.98006984	    -19.20877201	     -0.51456141	     56.98841653	     45.37361213	      0.00000000	      0.00000000	      3.79876532	    -10.52808925	     -9.36242299	     45.56818191	     46.71368277	      0.00000000	      0.00000000
     37.36771429	     -2.83571948	     -5.67038456	      3.59283808	      0.90550540	      0.92795539	      0.49107848	     14.44554403	      4.04673177	    -13.07463661	     18.61683197	     18.61683197	      8.97735809	     -2.23426292	     -5.50219440	     26.78539298	    -11.57244343	      4.25690715	     67.64110757	     67.64110757	      3.46600367	    -16.88982729	      6.43526658	     -9.11148942	      6.33973616	      0.78674389	     10.81024429	    -19.31606318	     -0.67309258	     58.03335967	     45.35342252	      0.00000000	      0.00000000	      3.24129871	    -10.42884718	     -9.33130851	     44.86191783	     46.69338376	      0.00000000	      0.00000000
     37.38085714	     -2.89608467	     -5.50408578	      3.90635595	      0.90402706	      0.92849706	      0.49190454	     14.02420408	      3.95840009	    -13.17644511	     18.39800391	     18.39800391	      9.20321562	     -2.30851165	     -5.47240542	     28.32131078	    -11.39314988	      4.14295281	     67.06443161	     67.06443161	      3.81243148	    -17.24330818	      6.54011123	     -9.28700758	      6.10783508	      1.21796485	     12.46801422	    -19.68474170	     -0.84708810	     58.77486886	     45.34324413	      0.00000000	      0.00000000	      2.88882165	    -10.19315503	     -9.27832206	     44.47055805	     46.67789944	      0.00000000	      0.00000000
     37.39400000	     -2.97618695	     -5.35482894	      4.34313294	      0.90250043	      0.92912467	      0.49242737	     13.49974354	      3.87967279	    -13.38367123	     17.94115255	     17.94115255	      9.38030191	     -2.35762115	     -5.30303229	     29.74186729	    -11.03573464	      4.18684593	     65.86953111	     65.86953111	      4.34498300	    -17.89471198	      7.30932066	     -9.42216835	      5.98637853	      0.79150646	     14.43811668	    -19.47446921	     -0.74083145	     60.39047677	     45.29383876	      0.00000000	      0.00000000	      2.29751397	    -10.24098495	     -9.32597158	     43.03541994	     46.65891068	      0.00000000	      0.00000000
     37.40714286	     -3.08559784	     -5.20246722	      4.69291769	      0.90093187	      0.92967183	      0.49292275	     13.05378156	      3.79495799	    -13.57523396	     17.56659221	     17.56659221	      9.57552979	     -2.31622514	     -5.10259720	     31.02920860	    -10.78180911	      3.93151502	     64.18830926	     64.18830926	      5.51730326	    -18.08387022	      8.92978914	     -9.52300376	      5.82995062	      0.90862415	     16.00391512	    -19.86593256	     -0.13211483	     62.03008895	     45.22706293	      0.00000000	      0.00000000	      2.31457817	     -9.97271379	     -9.73424521	     41.13003191	     46.67251388	      0.00000000	      0.00000000
     37.42028571	     -3.27814221	     -5.03118165	      5.01251062	      0.89930002	      0.93009472	      0.49335629	     12.72282670	      3.68500002	    -13.65483137	     17.23935377	     17.23935377	      9.75118456	     -2.39736456	     -5.04222958	     32.14468191	    -10.54374738	      3.49864567	     61.81768832	     61.81768832	      6.11136232	    -18.27974803	      9.28822307	     -9.57588859	      5.62825417	      1.30539192	     17.58012712	    -20.14545354	     -0.28394823	     62.85268700	     45.21332302	      0.00000000	      0.00000000	      1.93291153	     -9.76672241	     -9.74094465	     40.71754486	     46.66143769	      0.00000000	      0.00000000
